<svg width="67" height="23" viewBox="0 0 67 23" fill="none" xmlns="http://www.w3.org/2000/svg">
<path d="M47.228 9.49727C46.3557 7.67274 44.8598 6.76397 43.7917 5.51843C43.1687 4.79339 42.3788 4.17398 41.8113 3.41373C40.8536 2.13422 41.507 0.708648 43.1198 0.489708C43.578 0.427095 44.1067 0.475459 44.5417 0.631099C50.0523 2.56002 55.6629 4.10834 61.3731 5.29427C62.6643 5.56033 63.9696 6.00903 65.1247 6.63666C66.9116 7.60667 67.0592 9.15966 65.4777 10.4185C61.3849 13.6627 57.1854 16.7769 52.4735 19.1138C50.8476 19.9159 49.2383 20.7912 47.5771 21.5378C46.5985 21.9898 45.5311 22.3304 44.4845 22.562C43.1809 22.8426 42.4117 22.1143 42.3314 20.8181C42.249 19.613 42.7266 18.6939 43.5121 17.8912C44.6159 16.7492 45.3764 15.4355 46.0895 13.7925C44.6937 13.3053 43.5005 13.5519 42.3484 13.5989C29.7134 14.0438 17.078 14.5069 4.44303 14.9517C3.60178 14.9875 2.74474 14.9135 1.90678 14.8035C1.1232 14.7129 0.512606 14.2434 0.458096 13.4218C0.403174 12.6184 0.908996 12.0646 1.68173 11.8267C2.14156 11.6912 2.63585 11.6477 3.12973 11.6223C4.9413 11.499 6.77195 11.3397 8.59931 11.3261C21.2435 11.2825 33.8531 10.3448 46.4918 9.73594C46.5649 9.73758 46.6761 9.66716 47.228 9.49727Z" fill="white"/>
</svg>
