<svg width="54" height="54" viewBox="0 0 54 54" fill="none" xmlns="http://www.w3.org/2000/svg">
<path d="M47.8532 0.5H6.54219C3.29633 0.5 0.640625 3.15 0.640625 6.38889V47.6111C0.640625 50.85 3.29633 53.5 6.54219 53.5H47.8532C51.099 53.5 53.7547 50.85 53.7547 47.6111V6.38889C53.7547 3.15 51.099 0.5 47.8532 0.5ZM47.8532 47.6111H6.54219V6.38889H47.8532V47.6111ZM12.4438 21.1111H18.3453V41.7222H12.4438V21.1111ZM24.2469 12.2778H30.1485V41.7222H24.2469V12.2778ZM36.05 29.9444H41.9516V41.7222H36.05V29.9444Z" fill="#FFD200"/>
<path fill-rule="evenodd" clip-rule="evenodd" d="M47.8532 47.6111H6.54219V6.38889H47.8532V47.6111ZM18.3453 21.1111H12.4438V41.7222H18.3453V21.1111ZM30.1485 12.2778H24.2469V41.7222H30.1485V12.2778ZM41.9516 29.9444H36.05V41.7222H41.9516V29.9444Z" fill="#FFD200" fill-opacity="0.5"/>
</svg>
