<svg width="50" height="51" viewBox="0 0 50 51" fill="none" xmlns="http://www.w3.org/2000/svg">
<path d="M31.25 46.3332C30.3958 46.3332 29.6875 45.6248 29.6875 44.7707V6.229C29.6875 5.37484 30.3958 4.6665 31.25 4.6665C32.1042 4.6665 32.8125 5.37484 32.8125 6.229V44.7707C32.8125 45.6248 32.1042 46.3332 31.25 46.3332Z" fill="#5AB683"/>
<path d="M37.5 42.1668H31.25V8.8335H37.5C42.1042 8.8335 45.8333 12.5627 45.8333 17.1668V33.8335C45.8333 38.4377 42.1042 42.1668 37.5 42.1668Z" fill="#5AB683"/>
<path d="M12.4993 8.8335C7.89518 8.8335 4.16602 12.5627 4.16602 17.1668V33.8335C4.16602 38.4377 7.89518 42.1668 12.4993 42.1668H22.916C24.0618 42.1668 24.9993 41.2293 24.9993 40.0835V10.9168C24.9993 9.771 24.0618 8.8335 22.916 8.8335H12.4993ZM16.1452 32.7918C16.1452 33.646 15.4368 34.3543 14.5827 34.3543C13.7285 34.3543 13.0202 33.646 13.0202 32.7918V18.2085C13.0202 17.3543 13.7285 16.646 14.5827 16.646C15.4368 16.646 16.1452 17.3543 16.1452 18.2085V32.7918Z" fill="#5AB683"/>
</svg>
