<svg width="64" height="63" viewBox="0 0 64 63" fill="none" xmlns="http://www.w3.org/2000/svg">
<path d="M61.3046 31.5C61.3046 47.5163 48.2929 60.5 32.2421 60.5C16.1914 60.5 3.17969 47.5163 3.17969 31.5C3.17969 15.4837 16.1914 2.5 32.2421 2.5C48.2929 2.5 61.3046 15.4837 61.3046 31.5Z" fill="#797DF4" fill-opacity="0.5" stroke="#797DF4" stroke-width="4.83333" stroke-linecap="round" stroke-linejoin="round"/>
<path d="M30.0044 24.2147L41.9296 21.8335L39.5433 33.7332C39.2935 34.9804 38.6794 36.126 37.7784 37.0256C36.8774 37.9253 35.7297 38.5388 34.48 38.7888L22.5547 41.1668L24.941 29.2672C25.1914 28.0205 25.8057 26.8756 26.7067 25.9766C27.6077 25.0776 28.755 24.4646 30.0044 24.2147Z" stroke="#797DF4" stroke-width="4.83333" stroke-linecap="round" stroke-linejoin="round"/>
</svg>
