<svg width="50" height="51" viewBox="0 0 50 51" fill="none" xmlns="http://www.w3.org/2000/svg">
<path d="M24.9993 17.0625C21.2702 17.0625 18.2285 20.1042 18.2285 23.8333V27.1667C18.2285 30.8958 21.2702 33.9375 24.9993 33.9375C28.7285 33.9375 31.7702 30.8958 31.7702 27.1667V23.8333C31.7702 20.1042 28.7285 17.0625 24.9993 17.0625ZM26.8743 28.0833C26.8743 29.125 26.041 29.9583 24.9993 29.9583C23.9577 29.9583 23.1243 29.125 23.1243 28.0833V22.9375C23.1243 21.9167 23.9577 21.0625 24.9993 21.0625C26.041 21.0625 26.8743 21.8958 26.8743 22.9375V28.0833Z" fill="#FFD200"/>
<path d="M24.9993 4.6665C13.4993 4.6665 4.16602 13.9998 4.16602 25.4998C4.16602 36.9998 13.4993 46.3332 24.9993 46.3332C36.4993 46.3332 45.8327 36.9998 45.8327 25.4998C45.8327 13.9998 36.4993 4.6665 24.9993 4.6665ZM34.8952 27.1665C34.8952 32.6248 30.4577 37.0623 24.9993 37.0623C19.541 37.0623 15.1035 32.6248 15.1035 27.1665V23.8332C15.1035 18.3748 19.541 13.9373 24.9993 13.9373C30.4577 13.9373 34.8952 18.3748 34.8952 23.8332V27.1665Z" fill="#FFD200"/>
</svg>
