<svg width="34" height="34" viewBox="0 0 34 34" fill="none" xmlns="http://www.w3.org/2000/svg">
<path d="M15.6239 3.66916C16.0079 3.34396 16.4948 3.1655 16.998 3.1655C17.5013 3.1655 17.9882 3.34396 18.3722 3.66916L28.9972 12.6834C29.2325 12.8829 29.4215 13.1312 29.5512 13.411C29.6808 13.6909 29.748 13.9956 29.748 14.3041V27.625C29.748 28.1886 29.5242 28.7291 29.1256 29.1276C28.7271 29.5261 28.1866 29.75 27.623 29.75H19.4772C19.1954 29.75 18.9252 29.6381 18.7259 29.4388C18.5267 29.2395 18.4147 28.9693 18.4147 28.6875V19.8333H15.5814V28.6875C15.5814 28.9693 15.4694 29.2395 15.2702 29.4388C15.0709 29.6381 14.8007 29.75 14.5189 29.75H6.37305C5.80946 29.75 5.26896 29.5261 4.87044 29.1276C4.47193 28.7291 4.24805 28.1886 4.24805 27.625V14.3041C4.24805 13.6807 4.52288 13.0872 4.99888 12.6834L15.6239 3.66916ZM16.998 5.28983L6.37305 14.3041V27.625H13.4564V18.7708C13.4564 18.489 13.5683 18.2188 13.7676 18.0195C13.9668 17.8203 14.2371 17.7083 14.5189 17.7083H19.4772C19.759 17.7083 20.0293 17.8203 20.2285 18.0195C20.4278 18.2188 20.5397 18.489 20.5397 18.7708V27.625H27.623V14.3041L16.998 5.28983Z" fill="#797DF4"/>
</svg>
