<svg width="34" height="34" viewBox="0 0 34 34" fill="none" xmlns="http://www.w3.org/2000/svg">
<path d="M29.5355 21.0455L23.2787 18.2418L23.2614 18.2338C22.9366 18.0949 22.5823 18.0392 22.2305 18.0716C21.8787 18.1041 21.5406 18.2237 21.2467 18.4198C21.212 18.4426 21.1788 18.4675 21.147 18.4941L17.9144 21.25C15.8664 20.2552 13.752 18.1568 12.7573 16.1354L15.5171 12.8536C15.5437 12.8204 15.5689 12.7872 15.5928 12.7513C15.7846 12.4582 15.901 12.1222 15.9316 11.7733C15.9622 11.4243 15.906 11.0732 15.7681 10.7512V10.7352L12.9565 4.46782C12.7742 4.04715 12.4607 3.69673 12.0629 3.46885C11.6651 3.24098 11.2042 3.14788 10.7492 3.20344C8.9495 3.44026 7.29759 4.32407 6.10195 5.68982C4.90632 7.05557 4.24871 8.80984 4.25197 10.625C4.25197 21.1703 12.8317 29.75 23.377 29.75C25.1921 29.7533 26.9464 29.0957 28.3121 27.9C29.6779 26.7044 30.5617 25.0525 30.7985 23.2528C30.8542 22.7979 30.7613 22.3371 30.5337 21.9393C30.306 21.5415 29.9559 21.228 29.5355 21.0455ZM23.377 27.625C18.8698 27.6201 14.5486 25.8274 11.3616 22.6404C8.17453 19.4533 6.38189 15.1322 6.37696 10.625C6.37197 9.32808 6.83922 8.07367 7.69146 7.09605C8.5437 6.11844 9.72265 5.48445 11.0081 5.31251C11.0076 5.31781 11.0076 5.32314 11.0081 5.32844L13.7972 11.5706L11.052 14.8564C11.0241 14.8885 10.9988 14.9227 10.9763 14.9587C10.7764 15.2654 10.6592 15.6185 10.6359 15.9838C10.6126 16.3491 10.6841 16.7143 10.8434 17.0438C12.0467 19.5048 14.5263 21.9659 17.0139 23.1678C17.3459 23.3257 17.7132 23.3947 18.0798 23.3682C18.4464 23.3416 18.7999 23.2204 19.1057 23.0164C19.1398 22.9934 19.1726 22.9686 19.204 22.942L22.4327 20.1875L28.6749 22.9832H28.6895C28.5196 24.2705 27.8866 25.4518 26.9088 26.3062C25.931 27.1605 24.6754 27.6294 23.377 27.625Z" fill="#FF9AD5"/>
</svg>
