<svg width="34" height="34" viewBox="0 0 34 34" fill="none" xmlns="http://www.w3.org/2000/svg">
<g clip-path="url(#clip0_77_1648)">
<path d="M17 0C18.5605 0 20.0658 0.199219 21.5156 0.597656C22.9655 0.996094 24.3213 1.56608 25.583 2.30762C26.8447 3.04915 27.9902 3.93457 29.0195 4.96387C30.0488 5.99316 30.9342 7.14421 31.6758 8.41699C32.4173 9.68978 32.9873 11.0456 33.3857 12.4844C33.7842 13.9232 33.9889 15.4284 34 17C34 18.5605 33.8008 20.0658 33.4023 21.5156C33.0039 22.9655 32.4339 24.3213 31.6924 25.583C30.9508 26.8447 30.0654 27.9902 29.0361 29.0195C28.0068 30.0488 26.8558 30.9342 25.583 31.6758C24.3102 32.4173 22.9544 32.9873 21.5156 33.3857C20.0768 33.7842 18.5716 33.9889 17 34C15.4395 34 13.9342 33.8008 12.4844 33.4023C11.0345 33.0039 9.67871 32.4339 8.41699 31.6924C7.15527 30.9508 6.00977 30.0654 4.98047 29.0361C3.95117 28.0068 3.06576 26.8558 2.32422 25.583C1.58268 24.3102 1.0127 22.96 0.614258 21.5322C0.21582 20.1045 0.0110677 18.5938 0 17C0 15.4395 0.199219 13.9342 0.597656 12.4844C0.996094 11.0345 1.56608 9.67871 2.30762 8.41699C3.04915 7.15527 3.93457 6.00977 4.96387 4.98047C5.99316 3.95117 7.14421 3.06576 8.41699 2.32422C9.68978 1.58268 11.04 1.0127 12.4678 0.614258C13.8955 0.21582 15.4062 0.0110677 17 0ZM17 31.875C18.3613 31.875 19.6729 31.6979 20.9346 31.3438C22.1963 30.9896 23.3805 30.4915 24.4873 29.8496C25.5941 29.2077 26.6012 28.4274 27.5088 27.5088C28.4163 26.5902 29.1911 25.5885 29.833 24.5039C30.4749 23.4193 30.9785 22.235 31.3438 20.9512C31.709 19.6673 31.8861 18.3503 31.875 17C31.875 15.6387 31.6979 14.3271 31.3438 13.0654C30.9896 11.8037 30.4915 10.6195 29.8496 9.5127C29.2077 8.40592 28.4274 7.39876 27.5088 6.49121C26.5902 5.58366 25.5885 4.80892 24.5039 4.16699C23.4193 3.52507 22.235 3.02148 20.9512 2.65625C19.6673 2.29102 18.3503 2.11393 17 2.125C15.6387 2.125 14.3271 2.30208 13.0654 2.65625C11.8037 3.01042 10.6195 3.50846 9.5127 4.15039C8.40592 4.79232 7.39876 5.57259 6.49121 6.49121C5.58366 7.40983 4.80892 8.41146 4.16699 9.49609C3.52507 10.5807 3.02148 11.765 2.65625 13.0488C2.29102 14.3327 2.11393 15.6497 2.125 17C2.125 18.3613 2.30208 19.6729 2.65625 20.9346C3.01042 22.1963 3.50846 23.3805 4.15039 24.4873C4.79232 25.5941 5.57259 26.6012 6.49121 27.5088C7.40983 28.4163 8.41146 29.1911 9.49609 29.833C10.5807 30.4749 11.765 30.9785 13.0488 31.3438C14.3327 31.709 15.6497 31.8861 17 31.875ZM26.9111 17.2656L27.708 14.875H28.9531L27.542 19.125H26.2969L25.5 16.7344L24.7031 19.125H23.458L22.0469 14.875H23.292L24.0889 17.2656L24.8857 14.875H26.1143L26.9111 17.2656ZM19.208 14.875H20.4531L19.042 19.125H17.7969L17 16.7344L16.2031 19.125H14.958L13.5469 14.875H14.792L15.5889 17.2656L16.3857 14.875H17.6143L18.4111 17.2656L19.208 14.875ZM10.708 14.875H11.9531L10.542 19.125H9.29688L8.5 16.7344L7.70312 19.125H6.45801L5.04688 14.875H6.29199L7.08887 17.2656L7.88574 14.875H9.11426L9.91113 17.2656L10.708 14.875Z" fill="#FFD200"/>
</g>
<defs>
<clipPath id="clip0_77_1648">
<rect width="34" height="34" fill="white"/>
</clipPath>
</defs>
</svg>
