<svg width="50" height="51" viewBox="0 0 50 51" fill="none" xmlns="http://www.w3.org/2000/svg">
<path d="M4.16602 20.8123C3.31185 20.8123 2.60352 20.104 2.60352 19.2498V14.0415C2.60352 7.99984 7.52018 3.104 13.541 3.104H18.7494C19.6035 3.104 20.3119 3.81234 20.3119 4.6665C20.3119 5.52067 19.6035 6.229 18.7494 6.229H13.541C9.22852 6.229 5.72852 9.729 5.72852 14.0415V19.2498C5.72852 20.104 5.02018 20.8123 4.16602 20.8123Z" fill="#797DF4"/>
<path d="M45.8333 20.8123C44.9792 20.8123 44.2708 20.104 44.2708 19.2498V14.0415C44.2708 9.729 40.7708 6.229 36.4583 6.229H31.25C30.3958 6.229 29.6875 5.52067 29.6875 4.6665C29.6875 3.81234 30.3958 3.104 31.25 3.104H36.4583C42.4792 3.104 47.3958 7.99984 47.3958 14.0415V19.2498C47.3958 20.104 46.6875 20.8123 45.8333 20.8123Z" fill="#797DF4"/>
<path d="M36.459 47.896H33.334C32.4798 47.896 31.7715 47.1877 31.7715 46.3335C31.7715 45.4793 32.4798 44.771 33.334 44.771H36.459C40.7715 44.771 44.2715 41.271 44.2715 36.9585V33.8335C44.2715 32.9793 44.9798 32.271 45.834 32.271C46.6882 32.271 47.3965 32.9793 47.3965 33.8335V36.9585C47.3965 43.0002 42.4798 47.896 36.459 47.896Z" fill="#797DF4"/>
<path d="M18.7494 47.8958H13.541C7.52018 47.8958 2.60352 43 2.60352 36.9583V31.75C2.60352 30.8958 3.31185 30.1875 4.16602 30.1875C5.02018 30.1875 5.72852 30.8958 5.72852 31.75V36.9583C5.72852 41.2708 9.22852 44.7708 13.541 44.7708H18.7494C19.6035 44.7708 20.3119 45.4792 20.3119 46.3333C20.3119 47.1875 19.6035 47.8958 18.7494 47.8958Z" fill="#797DF4"/>
<path d="M18.75 11.4375H14.5833C12.2083 11.4375 10.9375 12.6875 10.9375 15.0833V19.25C10.9375 21.6458 12.2083 22.8958 14.5833 22.8958H18.75C21.125 22.8958 22.3958 21.6458 22.3958 19.25V15.0833C22.3958 12.6875 21.125 11.4375 18.75 11.4375Z" fill="#797DF4"/>
<path d="M35.416 11.4375H31.2493C28.8743 11.4375 27.6035 12.6875 27.6035 15.0833V19.25C27.6035 21.6458 28.8743 22.8958 31.2493 22.8958H35.416C37.791 22.8958 39.0618 21.6458 39.0618 19.25V15.0833C39.0618 12.6875 37.791 11.4375 35.416 11.4375Z" fill="#797DF4"/>
<path d="M18.75 28.104H14.5833C12.2083 28.104 10.9375 29.354 10.9375 31.7498V35.9165C10.9375 38.3123 12.2083 39.5623 14.5833 39.5623H18.75C21.125 39.5623 22.3958 38.3123 22.3958 35.9165V31.7498C22.3958 29.354 21.125 28.104 18.75 28.104Z" fill="#797DF4"/>
<path d="M35.416 28.104H31.2493C28.8743 28.104 27.6035 29.354 27.6035 31.7498V35.9165C27.6035 38.3123 28.8743 39.5623 31.2493 39.5623H35.416C37.791 39.5623 39.0618 38.3123 39.0618 35.9165V31.7498C39.0618 29.354 37.791 28.104 35.416 28.104Z" fill="#797DF4"/>
</svg>
