<svg width="50" height="51" viewBox="0 0 50 51" fill="none" xmlns="http://www.w3.org/2000/svg">
<path d="M38.6257 9.08317L27.1673 4.7915C25.9798 4.354 24.0423 4.354 22.8548 4.7915L11.3965 9.08317C9.18815 9.9165 7.39648 12.4998 7.39648 14.854V31.729C7.39648 33.4165 8.50065 35.6457 9.85482 36.6457L21.3131 45.2082C23.334 46.729 26.6465 46.729 28.6673 45.2082L40.1256 36.6457C41.4798 35.6248 42.584 33.4165 42.584 31.729V14.854C42.6048 12.4998 40.8132 9.9165 38.6257 9.08317ZM32.2506 20.7498L23.2923 29.7082C22.9798 30.0207 22.584 30.1665 22.1881 30.1665C21.7923 30.1665 21.3965 30.0207 21.084 29.7082L17.7507 26.3332C17.1465 25.729 17.1465 24.729 17.7507 24.1248C18.3548 23.5207 19.3548 23.5207 19.959 24.1248L22.209 26.3748L30.0632 18.5207C30.6673 17.9165 31.6673 17.9165 32.2715 18.5207C32.8756 19.1248 32.8756 20.1457 32.2506 20.7498Z" fill="#FF9AD5"/>
</svg>
