<svg width="54" height="54" viewBox="0 0 54 54" fill="none" xmlns="http://www.w3.org/2000/svg">
<path d="M9.21368 23.6021L0.361328 18.5642V8.48533L9.21368 3.44444L18.066 8.48533V18.5642L9.21368 23.6021ZM9.21368 20.2278L15.1152 16.877V10.1725L9.21368 6.81878L3.31211 10.1725V16.877L9.21368 20.2278ZM32.82 20.2278V16.6944L47.5739 25.1303V44.0424L31.3446 53.5L15.1152 44.0424V25.1303L29.8692 16.6944V17V20.2278L18.066 26.8204V42.3612L31.3446 50.0521L44.6231 42.3612V26.8174L32.82 20.2278ZM29.8692 32.8889V16.6944V0.5H53.4754L48.5948 7.86111L53.4754 15.2222H32.82V32.8889H29.8692Z" fill="#5AB683"/>
<path d="M9.21368 20.2278L15.1152 16.877V10.1725L9.21368 6.81878L3.31211 10.1725V16.877L9.21368 20.2278Z" fill="#5AB683" fill-opacity="0.5"/>
<path d="M29.8692 20.2278L18.066 26.8204V42.3612L31.3446 50.0521L44.6231 42.3612V26.8174L32.82 20.2278V32.8889H29.8692V20.2278Z" fill="#ACDAC1"/>
</svg>
