<svg width="60" height="58" viewBox="0 0 60 58" fill="none" xmlns="http://www.w3.org/2000/svg">
<path d="M57.1569 9.53667V44.1787C57.1569 44.392 57.1148 44.6031 57.033 44.8001C56.9512 44.9972 56.8313 45.1762 56.6802 45.327C56.5291 45.4777 56.3497 45.5974 56.1523 45.679C55.9548 45.7606 55.7432 45.8026 55.5295 45.8026H30.0345H4.53945C4.10785 45.8026 3.69393 45.6315 3.38875 45.327C3.08356 45.0224 2.91211 44.6094 2.91211 44.1787V9.53667C2.91211 9.106 3.08356 8.69296 3.38875 8.38843C3.69393 8.0839 4.10785 7.91282 4.53945 7.91282H30.0345H55.5295C55.9611 7.91282 56.375 8.0839 56.6802 8.38843C56.9854 8.69296 57.1569 9.106 57.1569 9.53667Z" fill="#FF9AD5" fill-opacity="0.5"/>
<path d="M55.5295 45.8026C55.7432 45.8026 55.9548 45.7606 56.1523 45.679C56.3497 45.5974 56.5291 45.4777 56.6802 45.327C56.8313 45.1762 56.9512 44.9972 57.033 44.8001C57.1148 44.6031 57.1569 44.392 57.1569 44.1787V9.53667C57.1569 9.106 56.9854 8.69296 56.6802 8.38843C56.375 8.0839 55.9611 7.91282 55.5295 7.91282M55.5295 45.8026H4.53945M55.5295 45.8026H30.0345M4.53945 45.8026C4.10785 45.8026 3.69393 45.6315 3.38875 45.327C3.08356 45.0224 2.91211 44.6094 2.91211 44.1787V9.53667C2.91211 9.106 3.08356 8.69296 3.38875 8.38843C3.69393 8.0839 4.10785 7.91282 4.53945 7.91282M4.53945 45.8026H30.0345M4.53945 7.91282H55.5295M4.53945 7.91282H30.0345M55.5295 7.91282H30.0345M20.5417 55.275L30.0345 45.8026M30.0345 45.8026L39.5273 55.275M30.0345 2.5V7.91282M21.8978 29.5641V34.9769M30.0345 24.1513V34.9769M38.1712 18.7385V34.9769" stroke="#FF9AD5" stroke-width="4.05962" stroke-linecap="round" stroke-linejoin="round"/>
</svg>
