<svg width="41" height="38" viewBox="0 0 41 38" fill="none" xmlns="http://www.w3.org/2000/svg">
<path d="M37.8012 9.43734C36.5285 9.98786 35.1566 10.3496 33.7351 10.5227C35.1897 9.689 36.3136 8.36775 36.8426 6.77911C35.4706 7.56557 33.95 8.11609 32.3467 8.43067C31.0409 7.07796 29.2062 6.2915 27.1235 6.2915C23.2392 6.2915 20.0657 9.3115 20.0657 13.0393C20.0657 13.5741 20.1318 14.0932 20.2475 14.5808C14.3632 14.2977 9.12349 11.608 5.63588 7.53411C5.02431 8.52505 4.6772 9.689 4.6772 10.9159C4.6772 13.2595 5.91688 15.3358 7.83423 16.5155C6.66068 16.5155 5.56977 16.2009 4.61109 15.729V15.7762C4.61109 19.0479 7.05737 21.7847 10.297 22.3982C9.25693 22.669 8.16497 22.7067 7.10696 22.5083C7.5559 23.8492 8.43512 25.0224 9.62104 25.8632C10.807 26.704 12.2399 27.1699 13.7185 27.1956C11.2121 29.0838 8.1053 30.1044 4.90861 30.0897C4.34663 30.0897 3.78464 30.0583 3.22266 29.9954C6.36316 31.9143 10.0987 33.0311 14.0987 33.0311C27.1235 33.0311 34.2806 22.7442 34.2806 13.8258C34.2806 13.5269 34.2806 13.2438 34.264 12.9449C35.6525 12.0012 36.8425 10.8058 37.8012 9.43734Z" fill="#55ACEE"/>
</svg>
