<svg width="40" height="38" viewBox="0 0 40 38" fill="none" xmlns="http://www.w3.org/2000/svg">
<path d="M16.5298 23.5939L25.1083 18.8752L16.5298 14.1564V23.5939ZM35.6373 11.278C35.8522 12.0172 36.0009 13.0082 36.1001 14.2665C36.2158 15.5249 36.2654 16.6102 36.2654 17.5539L36.3646 18.8752C36.3646 22.3199 36.1001 24.8522 35.6373 26.4724C35.2241 27.888 34.2654 28.8003 32.7778 29.1935C32.0009 29.398 30.5794 29.5395 28.3976 29.6339C26.2488 29.744 24.2819 29.7912 22.4637 29.7912L19.8356 29.8856C12.91 29.8856 8.59591 29.6339 6.89342 29.1935C5.40582 28.8003 4.44714 27.888 4.03391 26.4724C3.81904 25.7331 3.67028 24.7421 3.5711 23.4838C3.4554 22.2255 3.40581 21.1402 3.40581 20.1964L3.30664 18.8752C3.30664 15.4305 3.5711 12.8981 4.03391 11.278C4.44714 9.86235 5.40582 8.95006 6.89342 8.55683C7.67029 8.35235 9.09178 8.21079 11.2736 8.11641C13.4224 8.00631 15.3893 7.95912 17.2075 7.95912L19.8356 7.86475C26.7612 7.86475 31.0753 8.11641 32.7778 8.55683C34.2654 8.95006 35.2241 9.86235 35.6373 11.278Z" fill="#FF0000"/>
</svg>
